<svg viewBox="0 0 360 180" xmlns="http://www.w3.org/2000/svg">
<defs>
<marker id="head" orient="auto" refX="1" refY="7" viewBox="0 0 10 10">
<path d="M0,0 L10,7 L0,14 z" fill="black"/>
</marker>
</defs>
<rect fill="#4fc3ff" height="20" stroke="black" stroke-width="1" width="80" x="20" y="20"/>
<text font-size="10" text-anchor="middle" x="60" y="33">
Technology 0
</text>
<path d="M60,40 L60,60 L60,60 L60,77" fill="none" marker-end="url(#head)" stroke="black" stroke-width="1"/>
<rect fill="#4fc3ff" height="20" stroke="black" stroke-width="1" width="80" x="140" y="20"/>
<text font-size="10" text-anchor="middle" x="180" y="33">
Technology 1
</text>
<path d="M180,40 L180,60 L63,60 L63,77" fill="none" marker-end="url(#head)" stroke="black" stroke-width="1"/>
<path d="M180,40 L180,60 L183,120 L183,137" fill="none" marker-end="url(#head)" stroke="black" stroke-width="1"/>
<rect fill="#4fc3ff" height="20" stroke="black" stroke-width="1" width="80" x="260" y="20"/>
<text font-size="10" text-anchor="middle" x="300" y="33">
Technology 5
</text>
<path d="M300,40 L300,60 L66,60 L66,77" fill="none" marker-end="url(#head)" stroke="black" stroke-width="1"/>
<path d="M300,40 L300,60 L186,120 L186,137" fill="none" marker-end="url(#head)" stroke="black" stroke-width="1"/>
<rect fill="#4fc3ff" height="20" stroke="black" stroke-width="1" width="80" x="20" y="80"/>
<text font-size="10" text-anchor="middle" x="60" y="93">
Technology 2
</text>
<path d="M60,100 L60,120 L60,120 L60,137" fill="none" marker-end="url(#head)" stroke="black" stroke-width="1"/>
<path d="M60,100 L60,120 L180,120 L180,137" fill="none" marker-end="url(#head)" stroke="black" stroke-width="1"/>
<rect fill="#4fc3ff" height="20" stroke="black" stroke-width="1" width="80" x="20" y="140"/>
<text font-size="10" text-anchor="middle" x="60" y="153">
Technology 3
</text>
<rect fill="#4fc3ff" height="20" stroke="black" stroke-width="1" width="80" x="140" y="140"/>
<text font-size="10" text-anchor="middle" x="180" y="153">
Technology 4
</text>
</svg>